<?xml version="1.0" ?>
<!-- Uploaded to: SVG Repo, www.svgrepo.com, Generator: SVG Repo Mixer Tools -->
<svg fill="#000000" width="800px" height="800px" viewBox="0 0 100 100" version="1.1" xml:space="preserve" xmlns="http://www.w3.org/2000/svg" xmlns:xlink="http://www.w3.org/1999/xlink">
<g id="network"/>
<g id="connection"/>
<g id="page"/>
<g id="support"/>
<g id="configuration"/>
<g id="cloud_storage"/>
<g id="password"/>
<g id="search_engine">
<g>
<path d="M86.3,13.7C80.1,7.4,71.8,4,63,4s-17.1,3.4-23.3,9.7C28.3,25,27,42.6,35.6,55.4c-0.1,0-0.2,0.1-0.2,0.1l-6.1,6.1l-0.2-0.2    c-1.2-1.2-3.1-1.2-4.2,0l-20,20c-1.2,1.2-1.2,3.1,0,4.2l9.3,9.3c0.6,0.6,1.4,0.9,2.1,0.9c0.8,0,1.5-0.3,2.1-0.9l20-20    c1.2-1.2,1.2-3.1,0-4.2l-0.2-0.2l6.1-6.1c0.1-0.1,0.1-0.1,0.1-0.2C50,68,56.3,70,63,70c8.8,0,17.1-3.4,23.3-9.7    C92.6,54.1,96,45.8,96,37S92.6,19.9,86.3,13.7z M37,73.7l-20,20c-0.4,0.4-1,0.4-1.4,0l-9.3-9.3c-0.4-0.4-0.4-1,0-1.4l20-20    c0.2-0.2,0.5-0.3,0.7-0.3c0.3,0,0.5,0.1,0.7,0.3l0.9,0.9l7.6,7.6l0.9,0.9C37.4,72.7,37.4,73.3,37,73.7z M36.9,69.3l-6.2-6.2    l6.1-6.1c0.9,1.1,1.8,2.3,2.9,3.3c1,1,2.2,2,3.3,2.9L36.9,69.3z M84.9,58.9C79.1,64.8,71.3,68,63,68s-16.1-3.2-21.9-9.1    S32,45.3,32,37s3.2-16.1,9.1-21.9S54.7,6,63,6s16.1,3.2,21.9,9.1C90.8,20.9,94,28.7,94,37S90.8,53.1,84.9,58.9z"/>
<path d="M82.8,17.2C77.5,11.9,70.5,9,63,9s-14.5,2.9-19.8,8.2C37.9,22.5,35,29.5,35,37s2.9,14.5,8.2,19.8C48.5,62.1,55.5,65,63,65    s14.5-2.9,19.8-8.2C88.1,51.5,91,44.5,91,37S88.1,22.5,82.8,17.2z M77,36c-0.1-3.2-0.4-6.3-0.9-9.3c2,0.6,3.9,1.2,5.6,2.1    c4.2,2,6.7,4.6,7.2,7.3H77z M75,36H64V25c3.4,0.1,6.7,0.4,9.9,1.1C74.6,29.3,74.9,32.6,75,36z M64,23V11.1c2.7,0.5,5.3,3,7.3,7.2    c0.8,1.7,1.5,3.6,2.1,5.6C70.3,23.4,67.2,23.1,64,23z M62,11.1V23c-3.2,0.1-6.3,0.4-9.3,0.9c0.6-2,1.2-3.9,2.1-5.6    C56.7,14.1,59.3,11.6,62,11.1z M62,25v11H51c0.1-3.4,0.4-6.7,1.1-9.9C55.3,25.4,58.6,25.1,62,25z M49,36H37.1    c0.5-2.7,3-5.3,7.2-7.3c1.7-0.8,3.6-1.5,5.6-2.1C49.4,29.7,49.1,32.8,49,36z M49,38c0.1,3.2,0.4,6.3,0.9,9.3    c-2-0.6-3.9-1.2-5.6-2.1c-4.2-2-6.7-4.6-7.2-7.3H49z M51,38h11v11c-3.4-0.1-6.7-0.4-9.9-1.1C51.4,44.7,51.1,41.4,51,38z M62,51    v11.9c-2.7-0.5-5.3-3-7.3-7.2c-0.8-1.7-1.5-3.6-2.1-5.6C55.7,50.6,58.8,50.9,62,51z M64,62.9V51c3.2-0.1,6.3-0.4,9.3-0.9    c-0.6,2-1.2,3.9-2.1,5.6c0,0,0,0,0,0C69.3,59.9,66.7,62.4,64,62.9z M64,49V38h11c-0.1,3.4-0.4,6.7-1.1,9.9    C70.7,48.6,67.4,48.9,64,49z M77,38h11.9c-0.5,2.7-3,5.3-7.2,7.3c-1.7,0.8-3.6,1.5-5.6,2.1C76.6,44.3,76.9,41.2,77,38z M81.4,18.6    c3.4,3.4,5.8,7.7,6.9,12.3c-1.4-1.5-3.3-2.8-5.8-4c-2.1-1-4.5-1.8-7-2.4c-0.6-2.5-1.4-4.9-2.4-7c-1.2-2.4-2.5-4.3-4-5.8    C73.7,12.8,77.9,15.2,81.4,18.6z M44.6,18.6c3.4-3.4,7.7-5.8,12.3-6.9c-1.5,1.4-2.8,3.3-4,5.8c-1,2.1-1.8,4.5-2.4,7    c-2.5,0.6-4.9,1.4-7,2.4c-2.4,1.2-4.3,2.5-5.8,4C38.8,26.3,41.2,22.1,44.6,18.6z M44.6,55.4c-3.4-3.4-5.8-7.7-6.9-12.3    c1.4,1.5,3.3,2.8,5.8,4c2.1,1,4.5,1.8,7,2.4c0.6,2.5,1.4,4.9,2.4,7c1.2,2.4,2.5,4.3,4,5.8C52.3,61.2,48.1,58.8,44.6,55.4z     M81.4,55.4c-3.4,3.4-7.7,5.8-12.3,6.9c1.5-1.4,2.8-3.3,4-5.8v0c1-2.1,1.8-4.5,2.4-7c2.5-0.6,4.9-1.4,7-2.4c2.4-1.2,4.3-2.5,5.8-4    C87.2,47.7,84.8,51.9,81.4,55.4z"/>
</g>
</g>
<g id="history"/>
<g id="SEO"/>
<g id="optimization"/>
<g id="backlink"/>
<g id="performance"/>
<g id="analytics"/>
<g id="security"/>
<g id="dark_web"/>
<g id="video_player"/>
<g id="upload_download"/>
<g id="incognito_tab"/>
<g id="bookmark"/>
</svg>